# xmcd
#
# Track frame offsets: 
#        150
#        12360
#        26760
#        38777
#        52737
#        70057
#        85742
#        99202
#        121490
#        137482
#
# Disc length: 2029 seconds
#
# Revision: 3
# Processed by: cddbd v1.5.2PL0 Copyright (c) Steve Scherf et al.
# Submitted via: ExactAudioCopy v0.95b4
#
DISCID=7307eb0a
DTITLE=Waylon and Willie - Take It To The Limit
DYEAR=1983
DGENRE=Country
TTITLE0=No Love At All
TTITLE1=Why Do I Have To Choose
TTITLE2=Why Baby Why
TTITLE3=We Had It All
TTITLE4=Take It To The Limit
TTITLE5=Homeward Bound
TTITLE6=Blackjack County Chains
TTITLE7=Till I Gain Control Again
TTITLE8=Old Friends
TTITLE9=Would You Lay With Me 
EXTD=YEAR: 1983
EXTT0=
EXTT1=
EXTT2=
EXTT3=
EXTT4=
EXTT5=
EXTT6=
EXTT7=
EXTT8=
EXTT9=
PLAYORDER=
